<svg width="23" height="20" viewBox="0 0 23 20" fill="none" xmlns="http://www.w3.org/2000/svg">
<rect width="22.5" height="20" fill="none"/>
<path d="M22.5 5.5L11.5 20L16.5 10L22.5 5.5Z" fill="#1EB1FC"/>
<path d="M16.5 10L11.5 20L6 10H16.5Z" fill="#185EC1"/>
<path d="M6 10L11.5 20L0 6.5L6 10Z" fill="#2984E2"/>
<path d="M19.5 2L22.5 5.5L16.5 10L14.5 5L19.5 2Z" fill="#26DCFD"/>
<path d="M14.5 5L16.5 10H6L8 5H14.5Z" fill="#1BA7E9"/>
<path d="M8 5L6 10L0 6.5L3.5 2L8 5Z" fill="#26DCFD"/>
<path d="M8 5L3.5 2H19.5L14.5 5H8Z" fill="#82FFF8"/>
<path d="M7 0L3.5 2H19.5L16 0H7Z" fill="#B9FFF9"/>
</svg>
